<svg xmlns="http://www.w3.org/2000/svg" viewBox="0 0 236.99 52.04"><defs><style>.cls-1{fill:#fff;}</style></defs><title>Asset 1</title><g id="Layer_2" data-name="Layer 2"><g id="Layer_1-2" data-name="Layer 1"><path class="cls-1" d="M15.88,44.1c4.7,0,7.57-2.43,7.57-5.51,0-4.71-5.15-6-12.13-9.63S.81,20.36.81,14.48C.81,6,7.64,0,19.11,0A35.85,35.85,0,0,1,31.6,2.35v8.38C27.41,8.6,24,7.35,21.24,7.35c-4,0-6.54,2.2-6.54,4.85,0,4.12,5.29,5.59,13.89,10.29C34.32,25.65,37,30,37,36c0,9.34-7.72,15.81-19.62,15.81A46.15,46.15,0,0,1,2.57,49.17L0,38.59C5.81,42.11,10.73,44.1,15.88,44.1Z"/><path class="cls-1" d="M53.7,33.14c0,.45-.07.9-.07,1.28,0,6.45,4.2,10.2,11,10.2,3.38,0,7.43-1.43,12.53-3.83l-2.7,8.7A40.59,40.59,0,0,1,61.13,52c-13.43,0-21.3-7.57-21.3-18.82S48.08,14,59.33,14c10,0,17.4,7.05,17.4,18.15v1ZM59,21c-2.92,0-4.8,2-5,5.55h9.6C63.6,22.87,62,21,59,21Z"/><path class="cls-1" d="M81.38,44.32V22.12c0-2.93-.6-4.95-2.55-6.75h3.45a72.83,72.83,0,0,0,12-.83l.3,3.68c3-2.4,5.85-3.6,9.23-3.6,7.87,0,13,5,13,13.2v16.5c0,2.92.6,4.87,2.55,6.67H101c2-1.8,2.55-3.75,2.55-6.67V32.84c0-7-.9-10.65-4.72-10.65-4,0-4.28,3.68-4.28,10.65V44.32c0,2.92.6,4.87,2.55,6.67H78.83C80.78,49.19,81.38,47.24,81.38,44.32Z"/><path class="cls-1" d="M134.74,33.14c0,.45-.08.9-.08,1.28,0,6.45,4.2,10.2,11,10.2,3.37,0,7.42-1.43,12.52-3.83l-2.7,8.7A40.49,40.49,0,0,1,142.16,52c-13.42,0-21.3-7.57-21.3-18.82S129.11,14,140.36,14c10,0,17.4,7.05,17.4,18.15v1ZM140,21c-2.93,0-4.8,2-5,5.55h9.6C144.64,22.87,143,21,140,21Z"/><path class="cls-1" d="M193.89,49.57A28.48,28.48,0,0,1,182.12,52c-12.53,0-20.48-7.95-20.48-18.52,0-11.18,8.48-19.43,21.75-19.43a60.42,60.42,0,0,1,8.4.83v8.92c-3-1.57-5.4-2.4-7.35-2.4-4.95,0-8.17,3.75-8.17,10.28,0,7.72,3.82,12.44,10.12,12.44,3,0,6.3-1,10.2-3.14Z"/><path class="cls-1" d="M210.67,40.41c0,2.63,1.87,4.43,5.17,4.43h.6l-3.15,6.67c-2.1.15-3.52.23-4.42.23-7.43,0-12.45-4.8-12.45-11.17,0-5.55,3.52-9.08,10.42-10.73,6.6-1.57,10.88-1.42,10.88-5,0-2.25-1.58-3.45-4.73-3.45a25.75,25.75,0,0,0-9.52,2.1l3.52-8a30,30,0,0,1,8.4-1.35c5.85,0,10.05,1.2,12.75,4,3.15,3.22,3.23,7.27,3.23,12.45v9c0,3.89,1.35,5,5.62,5.62l-2.85,6.3c-1.95.15-3.3.22-4.2.22-7.2,0-12.3-4.42-12.3-11.09v-6.3C213,36.07,210.67,37.41,210.67,40.41Z"/></g></g></svg>